<svg width="18" height="19" viewBox="0 0 18 19" fill="none" xmlns="http://www.w3.org/2000/svg">
<path fill-rule="evenodd" clip-rule="evenodd" d="M5.25 12.1699C5.25 11.7574 5.5875 11.4199 6 11.4199C6.4125 11.4199 6.75 11.7574 6.75 12.1699C6.75 12.5824 6.4125 12.9199 6 12.9199C5.5875 12.9199 5.25 12.5824 5.25 12.1699ZM9 11.4199H12C12.4125 11.4199 12.75 11.7574 12.75 12.1699C12.75 12.5824 12.4125 12.9199 12 12.9199H9C8.5875 12.9199 8.25 12.5824 8.25 12.1699C8.25 11.7574 8.5875 11.4199 9 11.4199ZM13.5 15.1699H4.5C4.08675 15.1699 3.75 14.8332 3.75 14.4199V9.91992H14.25V14.4199C14.25 14.8332 13.9132 15.1699 13.5 15.1699ZM4.5 4.66992H5.25V5.41992C5.25 5.83242 5.5875 6.16992 6 6.16992C6.4125 6.16992 6.75 5.83242 6.75 5.41992V4.66992H11.25V5.41992C11.25 5.83242 11.5875 6.16992 12 6.16992C12.4125 6.16992 12.75 5.83242 12.75 5.41992V4.66992H13.5C13.9132 4.66992 14.25 5.00667 14.25 5.41992V8.41992H3.75V5.41992C3.75 5.00667 4.08675 4.66992 4.5 4.66992ZM13.5 3.16992H12.75V2.41992C12.75 2.00742 12.4125 1.66992 12 1.66992C11.5875 1.66992 11.25 2.00742 11.25 2.41992V3.16992H6.75V2.41992C6.75 2.00742 6.4125 1.66992 6 1.66992C5.5875 1.66992 5.25 2.00742 5.25 2.41992V3.16992H4.5C3.2595 3.16992 2.25 4.17942 2.25 5.41992V14.4199C2.25 15.6604 3.2595 16.6699 4.5 16.6699H13.5C14.7405 16.6699 15.75 15.6604 15.75 14.4199V5.41992C15.75 4.17942 14.7405 3.16992 13.5 3.16992Z" fill="black" fill-opacity="0.4"/>
<mask id="mask0_68_1891" style="mask-type:luminance" maskUnits="userSpaceOnUse" x="2" y="1" width="14" height="16">
<path fill-rule="evenodd" clip-rule="evenodd" d="M5.25 12.1699C5.25 11.7574 5.5875 11.4199 6 11.4199C6.4125 11.4199 6.75 11.7574 6.75 12.1699C6.75 12.5824 6.4125 12.9199 6 12.9199C5.5875 12.9199 5.25 12.5824 5.25 12.1699ZM9 11.4199H12C12.4125 11.4199 12.75 11.7574 12.75 12.1699C12.75 12.5824 12.4125 12.9199 12 12.9199H9C8.5875 12.9199 8.25 12.5824 8.25 12.1699C8.25 11.7574 8.5875 11.4199 9 11.4199ZM13.5 15.1699H4.5C4.08675 15.1699 3.75 14.8332 3.75 14.4199V9.91992H14.25V14.4199C14.25 14.8332 13.9132 15.1699 13.5 15.1699ZM4.5 4.66992H5.25V5.41992C5.25 5.83242 5.5875 6.16992 6 6.16992C6.4125 6.16992 6.75 5.83242 6.75 5.41992V4.66992H11.25V5.41992C11.25 5.83242 11.5875 6.16992 12 6.16992C12.4125 6.16992 12.75 5.83242 12.75 5.41992V4.66992H13.5C13.9132 4.66992 14.25 5.00667 14.25 5.41992V8.41992H3.75V5.41992C3.75 5.00667 4.08675 4.66992 4.5 4.66992ZM13.5 3.16992H12.75V2.41992C12.75 2.00742 12.4125 1.66992 12 1.66992C11.5875 1.66992 11.25 2.00742 11.25 2.41992V3.16992H6.75V2.41992C6.75 2.00742 6.4125 1.66992 6 1.66992C5.5875 1.66992 5.25 2.00742 5.25 2.41992V3.16992H4.5C3.2595 3.16992 2.25 4.17942 2.25 5.41992V14.4199C2.25 15.6604 3.2595 16.6699 4.5 16.6699H13.5C14.7405 16.6699 15.75 15.6604 15.75 14.4199V5.41992C15.75 4.17942 14.7405 3.16992 13.5 3.16992Z" fill="white"/>
</mask>
<g mask="url(#mask0_68_1891)">
<rect y="0.169922" width="18" height="18" fill="black" fill-opacity="0.4"/>
</g>
</svg>
