<svg width="18" height="18" viewBox="0 0 18 18" fill="none" xmlns="http://www.w3.org/2000/svg">
<g opacity="0.6">
<path fill-rule="evenodd" clip-rule="evenodd" d="M9.00019 11.6252C8.80819 11.6252 8.61619 11.5517 8.46994 11.4054L5.46994 8.40544C5.17669 8.11219 5.17669 7.63819 5.46994 7.34494C5.76319 7.05169 6.23719 7.05169 6.53044 7.34494L9.00919 9.82369L11.4789 7.43869C11.7782 7.15144 12.2514 7.15969 12.5394 7.45744C12.8274 7.75519 12.8192 8.23069 12.5214 8.51794L9.52144 11.4144C9.37519 11.5554 9.18769 11.6252 9.00019 11.6252Z" fill="black"/>
<mask id="mask0_68_1989" style="mask-type:luminance" maskUnits="userSpaceOnUse" x="5" y="7" width="8" height="5">
<path fill-rule="evenodd" clip-rule="evenodd" d="M9.00019 11.6252C8.80819 11.6252 8.61619 11.5517 8.46994 11.4054L5.46994 8.40544C5.17669 8.11219 5.17669 7.63819 5.46994 7.34494C5.76319 7.05169 6.23719 7.05169 6.53044 7.34494L9.00919 9.82369L11.4789 7.43869C11.7782 7.15144 12.2514 7.15969 12.5394 7.45744C12.8274 7.75519 12.8192 8.23069 12.5214 8.51794L9.52144 11.4144C9.37519 11.5554 9.18769 11.6252 9.00019 11.6252Z" fill="white"/>
</mask>
<g mask="url(#mask0_68_1989)">
<rect width="18" height="18" fill="black"/>
</g>
</g>
</svg>
