<svg width="16" height="16" viewBox="0 0 16 16" fill="none" xmlns="http://www.w3.org/2000/svg">
<path fill-rule="evenodd" clip-rule="evenodd" d="M2 7.99984C2 7.26384 2.59733 6.6665 3.33333 6.6665C4.06933 6.6665 4.66667 7.26384 4.66667 7.99984C4.66667 8.73584 4.06933 9.33317 3.33333 9.33317C2.59733 9.33317 2 8.73584 2 7.99984ZM8 6.6665C7.264 6.6665 6.66667 7.26384 6.66667 7.99984C6.66667 8.73584 7.264 9.33317 8 9.33317C8.736 9.33317 9.33333 8.73584 9.33333 7.99984C9.33333 7.26384 8.736 6.6665 8 6.6665ZM12.6667 6.6665C11.9307 6.6665 11.3333 7.26384 11.3333 7.99984C11.3333 8.73584 11.9307 9.33317 12.6667 9.33317C13.4027 9.33317 14 8.73584 14 7.99984C14 7.26384 13.4027 6.6665 12.6667 6.6665Z" fill="#121212"/>
<mask id="mask0_2027_3058" style="mask-type:luminance" maskUnits="userSpaceOnUse" x="2" y="6" width="12" height="4">
<path fill-rule="evenodd" clip-rule="evenodd" d="M2 7.99984C2 7.26384 2.59733 6.6665 3.33333 6.6665C4.06933 6.6665 4.66667 7.26384 4.66667 7.99984C4.66667 8.73584 4.06933 9.33317 3.33333 9.33317C2.59733 9.33317 2 8.73584 2 7.99984ZM8 6.6665C7.264 6.6665 6.66667 7.26384 6.66667 7.99984C6.66667 8.73584 7.264 9.33317 8 9.33317C8.736 9.33317 9.33333 8.73584 9.33333 7.99984C9.33333 7.26384 8.736 6.6665 8 6.6665ZM12.6667 6.6665C11.9307 6.6665 11.3333 7.26384 11.3333 7.99984C11.3333 8.73584 11.9307 9.33317 12.6667 9.33317C13.4027 9.33317 14 8.73584 14 7.99984C14 7.26384 13.4027 6.6665 12.6667 6.6665Z" fill="white"/>
</mask>
<g mask="url(#mask0_2027_3058)">
<rect width="16" height="16" fill="#121212"/>
</g>
</svg>
