<svg width="18" height="19" viewBox="0 0 18 19" fill="none" xmlns="http://www.w3.org/2000/svg">
<path fill-rule="evenodd" clip-rule="evenodd" d="M14.25 8.68164H9.75V4.18164C9.75 3.76689 9.414 3.43164 9 3.43164C8.586 3.43164 8.25 3.76689 8.25 4.18164V8.68164H3.75C3.336 8.68164 3 9.01689 3 9.43164C3 9.84639 3.336 10.1816 3.75 10.1816H8.25V14.6816C8.25 15.0964 8.586 15.4316 9 15.4316C9.414 15.4316 9.75 15.0964 9.75 14.6816V10.1816H14.25C14.664 10.1816 15 9.84639 15 9.43164C15 9.01689 14.664 8.68164 14.25 8.68164Z" fill="#7B1984"/>
<mask id="mask0_68_1854" style="mask-type:luminance" maskUnits="userSpaceOnUse" x="3" y="3" width="12" height="13">
<path fill-rule="evenodd" clip-rule="evenodd" d="M14.25 8.68164H9.75V4.18164C9.75 3.76689 9.414 3.43164 9 3.43164C8.586 3.43164 8.25 3.76689 8.25 4.18164V8.68164H3.75C3.336 8.68164 3 9.01689 3 9.43164C3 9.84639 3.336 10.1816 3.75 10.1816H8.25V14.6816C8.25 15.0964 8.586 15.4316 9 15.4316C9.414 15.4316 9.75 15.0964 9.75 14.6816V10.1816H14.25C14.664 10.1816 15 9.84639 15 9.43164C15 9.01689 14.664 8.68164 14.25 8.68164Z" fill="white"/>
</mask>
<g mask="url(#mask0_68_1854)">
<rect y="0.431641" width="18" height="18" fill="#7B1984"/>
</g>
</svg>
