<svg width="12" height="11" viewBox="0 0 12 11" fill="none" xmlns="http://www.w3.org/2000/svg">
<path d="M0.0505857 6.70135C0.0179904 6.77996 0 6.86615 0 6.95654C0 7.13395 0.0692938 7.29517 0.182291 7.41461C0.187051 7.41964 0.191887 7.4246 0.1968 7.42948L2.86193 10.0946C3.12228 10.3549 3.54439 10.3549 3.80474 10.0946C4.06509 9.83428 4.06509 9.41214 3.80474 9.15181L2.27614 7.62321H8.66667C10.5076 7.62321 12 6.13081 12 4.28988V1.62321C12 1.25502 11.7015 0.956543 11.3333 0.956543C10.9651 0.956543 10.6667 1.25502 10.6667 1.62321V4.28988C10.6667 5.39448 9.77127 6.28988 8.66667 6.28988H2.27614L3.80474 4.76128C4.06509 4.50094 4.06509 4.07882 3.80474 3.81847C3.54439 3.55812 3.12228 3.55812 2.86193 3.81847L0.196799 6.4836C0.192193 6.48818 0.187654 6.49282 0.183184 6.49753C0.125237 6.5585 0.0810369 6.62775 0.0505857 6.70135Z" fill="white" fill-opacity="0.8"/>
</svg>
