<svg width="14" height="14" viewBox="0 0 14 14" fill="none" xmlns="http://www.w3.org/2000/svg">
<path d="M12.6638 2.7508C13.2477 2.95599 13.6663 3.51228 13.6663 4.16634V10.833C13.6663 12.3978 12.3978 13.6663 10.833 13.6663H4.16634C3.51228 13.6663 2.95599 13.2477 2.7508 12.6638L4.14898 12.666L10.833 12.6663C11.8455 12.6663 12.6663 11.8455 12.6663 10.833V4.16634L12.6637 4.13235L12.6638 2.7508ZM10.4975 0.333008C11.326 0.333008 11.9975 1.00458 11.9975 1.83301V10.4975C11.9975 11.326 11.326 11.9975 10.4975 11.9975H1.83301C1.00458 11.9975 0.333008 11.326 0.333008 10.4975V1.83301C0.333008 1.00458 1.00458 0.333008 1.83301 0.333008H10.4975ZM7.97945 3.97945L5.3871 6.5718L4.73301 5.69967C4.56732 5.47876 4.25392 5.43399 4.03301 5.59967C3.81209 5.76536 3.76732 6.07876 3.93301 6.29967L4.93301 7.63301C5.11557 7.87643 5.47141 7.90172 5.68656 7.68656L8.68656 4.68656C8.88182 4.4913 8.88182 4.17472 8.68656 3.97945C8.4913 3.78419 8.17472 3.78419 7.97945 3.97945Z" fill="white" fill-opacity="0.8"/>
</svg>
