<svg width="15" height="15" viewBox="0 0 15 15" fill="none" xmlns="http://www.w3.org/2000/svg">
<path fill-rule="evenodd" clip-rule="evenodd" d="M8.38391 7.50016L11.067 4.81703C11.3114 4.57266 11.3114 4.17766 11.067 3.93328C10.8227 3.68891 10.4277 3.68891 10.1833 3.93328L7.50016 6.61641L4.81703 3.93328C4.57266 3.68891 4.17766 3.68891 3.93328 3.93328C3.68891 4.17766 3.68891 4.57266 3.93328 4.81703L6.61641 7.50016L3.93328 10.1833C3.68891 10.4277 3.68891 10.8227 3.93328 11.067C4.05516 11.1889 4.21516 11.2502 4.37516 11.2502C4.53516 11.2502 4.69516 11.1889 4.81703 11.067L7.50016 8.38391L10.1833 11.067C10.3052 11.1889 10.4652 11.2502 10.6252 11.2502C10.7852 11.2502 10.9452 11.1889 11.067 11.067C11.3114 10.8227 11.3114 10.4277 11.067 10.1833L8.38391 7.50016Z" fill="white"/>
<mask id="mask0_2035_4909" style="mask-type:luminance" maskUnits="userSpaceOnUse" x="3" y="3" width="9" height="9">
<path fill-rule="evenodd" clip-rule="evenodd" d="M8.38391 7.50016L11.067 4.81703C11.3114 4.57266 11.3114 4.17766 11.067 3.93328C10.8227 3.68891 10.4277 3.68891 10.1833 3.93328L7.50016 6.61641L4.81703 3.93328C4.57266 3.68891 4.17766 3.68891 3.93328 3.93328C3.68891 4.17766 3.68891 4.57266 3.93328 4.81703L6.61641 7.50016L3.93328 10.1833C3.68891 10.4277 3.68891 10.8227 3.93328 11.067C4.05516 11.1889 4.21516 11.2502 4.37516 11.2502C4.53516 11.2502 4.69516 11.1889 4.81703 11.067L7.50016 8.38391L10.1833 11.067C10.3052 11.1889 10.4652 11.2502 10.6252 11.2502C10.7852 11.2502 10.9452 11.1889 11.067 11.067C11.3114 10.8227 11.3114 10.4277 11.067 10.1833L8.38391 7.50016Z" fill="white"/>
</mask>
<g mask="url(#mask0_2035_4909)">
<rect width="15" height="15" fill="white"/>
</g>
</svg>
